<?xml version="1.0" encoding="UTF-8"?>
<svg width="512" height="512" viewBox="0 0 24 24" fill="none" xmlns="http://www.w3.org/2000/svg">
  <defs>
    <linearGradient id="gradient" x1="0%" y1="0%" x2="100%" y2="100%">
      <stop offset="0%" style="stop-color:#4F46E5"/>
      <stop offset="100%" style="stop-color:#7C3AED"/>
    </linearGradient>
  </defs>
  <path d="M21.54 15H17a2 2 0 0 0-2 2v4.54M7 3.34V5a3 3 0 0 0 3 3v0a2 2 0 0 1 2 2v0c0 1.1.9 2 2 2v0a2 2 0 0 0 2-2v0c0-1.1.9-2 2-2h3.17M11 21.95V18a2 2 0 0 0-2-2v0a2 2 0 0 1-2-2v-1a2 2 0 0 0-2-2H2.05" stroke="url(#gradient)" stroke-width="2" stroke-linecap="round" stroke-linejoin="round"/>
  <circle cx="12" cy="12" r="10" stroke="url(#gradient)" stroke-width="2" fill="none"/>
</svg>